REM MD5 73ea9bc356b9df231f0ea8404caa0095
FILE "Player Manager 2000 (Germany).bin" BINARY
  TRACK 01 MODE2/2352
    INDEX 01 00:00:00
  TRACK 02 AUDIO
    INDEX 00 05:24:15
    INDEX 01 05:26:15
  TRACK 03 AUDIO
    INDEX 00 05:35:13
    INDEX 01 05:37:13
  TRACK 04 AUDIO
    INDEX 00 06:32:22
    INDEX 01 06:34:22
  TRACK 05 AUDIO
    INDEX 00 09:07:50
    INDEX 01 09:09:50
REM LEADOUT 10:09:50
